<svg width="903" height="903" viewBox="0 0 903 903" fill="none" xmlns="http://www.w3.org/2000/svg">
<g clip-path="url(#clip0_2_2)">
<path d="M671.504 577.609L781.989 145H902.86V77H729.174L703.128 178.98L0 178.477L74.753 577.606H671.504V577.609ZM685.766 246.968L618.689 509.608H131.199L81.928 246.536L685.766 246.968Z" fill="white"/>
<path d="M578.418 825.421C638.379 825.421 687.161 776.638 687.161 716.677C687.161 656.716 638.379 607.935 578.418 607.935H168.717C108.756 607.935 59.973 656.716 59.973 716.677C59.973 776.638 108.755 825.421 168.717 825.421C228.679 825.421 277.46 776.638 277.46 716.677C277.46 702.277 274.639 688.525 269.533 675.935H477.602C472.495 688.525 469.674 702.277 469.674 716.677C469.675 776.638 518.457 825.421 578.418 825.421ZM209.46 716.677C209.46 739.144 191.183 757.421 168.717 757.421C146.251 757.421 127.973 739.144 127.973 716.677C127.973 694.212 146.25 675.935 168.717 675.935C191.183 675.935 209.46 694.212 209.46 716.677ZM619.162 716.677C619.162 739.144 600.885 757.421 578.419 757.421C555.953 757.421 537.676 739.144 537.676 716.677C537.676 694.212 555.953 675.935 578.419 675.935C600.885 675.935 619.162 694.212 619.162 716.677Z" fill="white"/>
</g>
<defs>
<clipPath id="clip0_2_2">
<rect width="902.86" height="902.86" fill="white"/>
</clipPath>
</defs>
</svg>
